<svg width="24" height="24" viewBox="0 0 24 24" fill="none" xmlns="http://www.w3.org/2000/svg">
<path d="M3.7817 4.93795L3.25137 4.40762L3.25137 4.40762L3.7817 4.93795ZM5.06847 3.65118L5.5988 4.18151L5.06847 3.65118ZM8.33784 3.70363L7.80751 4.23396L8.33784 3.70363ZM10.3309 5.69672L10.8613 5.16639L10.3309 5.69672ZM10.3834 8.96609L10.9137 9.49642L10.9137 9.49642L10.3834 8.96609ZM15.0339 13.6166L15.5642 14.147L15.5642 14.147L15.0339 13.6166ZM18.3033 13.6691L18.8336 13.1387L18.3033 13.6691ZM20.2964 15.6622L19.766 16.1925L20.2964 15.6622ZM12.9641 13.9739L13.4415 13.3954L12.9641 13.9739ZM14.7575 13.893L14.2272 13.3627L14.2272 13.3627L14.7575 13.893ZM10.107 9.24247L9.57666 8.71214L9.57666 8.71214L10.107 9.24247ZM10.0261 11.0359L10.6046 10.5585L10.0261 11.0359ZM7.35294 16.6471C9.52184 18.816 11.9173 20.3993 14.0638 21.1868C16.1453 21.9505 18.2847 22.0563 19.5924 20.7486L18.5317 19.688C17.8851 20.3346 16.5449 20.4994 14.5805 19.7786C12.681 19.0817 10.4643 17.6371 8.4136 15.5864L7.35294 16.6471ZM3.25137 4.40762C1.94366 5.71534 2.04947 7.85473 2.81319 9.93622C3.60074 12.0827 5.18405 14.4782 7.35294 16.6471L8.4136 15.5864C6.36295 13.5357 4.91831 11.319 4.22139 9.41954C3.50063 7.45511 3.66544 6.11488 4.31203 5.46828L3.25137 4.40762ZM8.86817 3.1733C7.67415 1.97928 5.73527 1.92372 4.53814 3.12085L5.5988 4.18151C6.17832 3.60199 7.16694 3.59339 7.80751 4.23396L8.86817 3.1733ZM10.8613 5.16639L8.86817 3.1733L7.80751 4.23396L9.80059 6.22705L10.8613 5.16639ZM10.9137 9.49642C12.1108 8.29928 12.0553 6.36041 10.8613 5.16639L9.80059 6.22705C10.4412 6.86762 10.4326 7.85623 9.85304 8.43576L10.9137 9.49642ZM10.6373 9.7728L10.9137 9.49642L9.85304 8.43576L9.57666 8.71214L10.6373 9.7728ZM11.9522 12.0478C11.4691 11.5647 11.0217 11.064 10.6046 10.5585L9.44763 11.5132C9.89023 12.0496 10.3697 12.5866 10.8915 13.1085L11.9522 12.0478ZM13.4415 13.3954C12.936 12.9783 12.4353 12.5309 11.9522 12.0478L10.8915 13.1085C11.4134 13.6303 11.9504 14.1098 12.4868 14.5524L13.4415 13.3954ZM14.5036 13.0863L14.2272 13.3627L15.2879 14.4233L15.5642 14.147L14.5036 13.0863ZM18.8336 13.1387C17.6396 11.9447 15.7007 11.8892 14.5036 13.0863L15.5642 14.147C16.1438 13.5674 17.1324 13.5588 17.7729 14.1994L18.8336 13.1387ZM20.8267 15.1318L18.8336 13.1387L17.7729 14.1994L19.766 16.1925L20.8267 15.1318ZM20.8791 19.4619C22.0763 18.2647 22.0207 16.3259 20.8267 15.1318L19.766 16.1925C20.4066 16.8331 20.398 17.8217 19.8185 18.4012L20.8791 19.4619ZM12.4868 14.5524C13.327 15.2458 14.5368 15.1743 15.2879 14.4233L14.2272 13.3627C14.019 13.5709 13.6813 13.5933 13.4415 13.3954L12.4868 14.5524ZM9.57666 8.71214C8.82565 9.46315 8.75424 10.673 9.44763 11.5132L10.6046 10.5585C10.4067 10.3187 10.4291 9.98103 10.6373 9.7728L9.57666 8.71214ZM4.53814 3.12085L3.25137 4.40762L4.31203 5.46828L5.5988 4.18151L4.53814 3.12085ZM19.5924 20.7486L20.8791 19.4619L19.8185 18.4012L18.5317 19.688L19.5924 20.7486Z" fill="#737581"/>
</svg>
