<svg width="46" height="46" viewBox="0 0 46 46" fill="none" xmlns="http://www.w3.org/2000/svg">
<circle cx="23" cy="23" r="23" fill="white"/>
<path d="M11.7513 32.8345C11.3607 33.2251 11.3607 33.8582 11.7513 34.2488C12.1418 34.6393 12.775 34.6393 13.1655 34.2488L11.7513 32.8345ZM11.7513 13.1654L22.2929 23.7071L23.7071 22.2929L13.1655 11.7512L11.7513 13.1654ZM22.2929 23.7071L32.8346 34.2488L34.2488 32.8345L23.7071 22.2929L22.2929 23.7071ZM22.2929 22.2929L11.7513 32.8345L13.1655 34.2488L23.7071 23.7071L22.2929 22.2929ZM13.1655 34.2488L34.2488 13.1654L32.8346 11.7512L11.7513 32.8345L13.1655 34.2488Z" fill="#2647E6"/>
</svg>
