<svg width="13" height="13" viewBox="0 0 13 13" fill="none" xmlns="http://www.w3.org/2000/svg">
<path fill-rule="evenodd" clip-rule="evenodd" d="M6.5 13C2.91588 13 0 10.0841 0 6.5C0 2.91588 2.91588 0 6.5 0C10.0841 0 13 2.91588 13 6.5C13 10.0841 10.0841 13 6.5 13ZM9.87081 8.7834C9.95094 8.7834 10.0162 8.7182 10.0162 8.63804V4.55734L6.70904 7.18354C6.64785 7.23216 6.57389 7.25646 6.49997 7.25646C6.42606 7.25646 6.35213 7.23214 6.29091 7.18354L2.9838 4.55734V8.63804C2.9838 8.7182 3.04903 8.7834 3.12917 8.7834H9.87081ZM9.36401 4.2166L6.5 6.49096L3.63596 4.2166H9.36401ZM10.6886 4.36196V8.63809C10.6886 9.08901 10.3217 9.45587 9.87081 9.45587H3.12917C2.67823 9.45587 2.31141 9.08901 2.31141 8.63809V4.36196C2.31141 3.91105 2.67825 3.5442 3.12917 3.5442H9.87081C10.3217 3.54418 10.6886 3.91105 10.6886 4.36196Z" fill="#737581"/>
</svg>
