<svg width="28" height="27" viewBox="0 0 28 27" fill="none" xmlns="http://www.w3.org/2000/svg">
<path d="M4 6C4 4.89543 4.89543 4 6 4H22C23.1046 4 24 4.89543 24 6V6.81751C24 7.57739 23.7116 8.30895 23.1932 8.86447L17.5379 14.9237C17.1922 15.294 17 15.7817 17 16.2883V20.382C17 20.7607 16.786 21.107 16.4472 21.2764L12.4472 23.2764C11.7823 23.6088 11 23.1253 11 22.382V16.2883C11 15.7817 10.8078 15.294 10.4621 14.9237L4.80683 8.86446C4.28836 8.30895 4 7.57739 4 6.81751V6Z" stroke="#2647E6" stroke-width="2"/>
</svg>
