<svg width="12" height="16" viewBox="0 0 12 16" fill="none" xmlns="http://www.w3.org/2000/svg">
<path d="M11.2877 8.29808C10.0773 5.14802 5.57824 5.11156 7.28452 0C4.02508 1.46565 1.44378 5.23552 3.99591 10.2158C0.386466 8.69913 1.96879 4.9001 1.96879 4.9001C1.96879 4.9001 0 6.11054 0 9.77103C0.277089 13.8544 3.72612 15.1086 4.96572 15.2691C6.73763 15.4951 8.65538 15.167 10.0335 13.9055C11.5502 12.4982 12.1044 10.2523 11.2877 8.29808ZM4.52092 11.9659C5.57094 11.7106 6.11054 10.9523 6.25637 10.2815C6.497 9.23872 5.55636 8.21787 6.19075 6.56992C6.43138 7.93349 8.57517 8.78663 8.57517 10.2742C8.6335 12.119 6.63555 13.7013 4.52092 11.9659Z" fill="white"/>
</svg>
