<svg width="10" height="14" viewBox="0 0 10 14" fill="none" xmlns="http://www.w3.org/2000/svg">
<path d="M9.02227 7.58578C8.05476 5.06793 4.45868 5.03879 5.82251 0.953125C3.21724 2.12462 1.15401 5.13787 3.19393 9.11863C0.308902 7.90634 1.57365 4.86977 1.57365 4.86977C1.57365 4.86977 0 5.83728 0 8.7631C0.221477 12.027 2.97828 13.0294 3.9691 13.1577C5.38539 13.3383 6.91824 13.0761 8.0198 12.0678C9.23209 10.9429 9.67504 9.14777 9.02227 7.58578ZM3.61357 10.5174C4.45285 10.3134 4.88415 9.70729 5.00072 9.17109C5.19305 8.33763 4.44119 7.52167 4.94826 6.20446C5.1406 7.29436 6.85413 7.97628 6.85413 9.16526C6.90075 10.6398 5.30379 11.9046 3.61357 10.5174Z" fill="#2647E6"/>
</svg>
