<svg width="26" height="25" viewBox="0 0 26 25" fill="none" xmlns="http://www.w3.org/2000/svg">
<path d="M1.0026 0.234903C0.580006 0.234903 0.237422 0.577487 0.237422 1.00009C0.237422 1.42268 0.580006 1.76527 1.0026 1.76527V0.234903ZM2.12532 1.76527C2.54792 1.76527 2.8905 1.42268 2.8905 1.00009C2.8905 0.577487 2.54792 0.234903 2.12532 0.234903V1.76527ZM6.33441 0.234903C5.91182 0.234903 5.56923 0.577487 5.56923 1.00009C5.56923 1.42268 5.91182 1.76527 6.33441 1.76527V0.234903ZM7.45713 1.76527C7.87973 1.76527 8.22231 1.42268 8.22231 1.00009C8.22231 0.577487 7.87973 0.234903 7.45713 0.234903V1.76527ZM11.9496 0.234818C11.527 0.234818 11.1845 0.577402 11.1845 1C11.1845 1.4226 11.527 1.76518 11.9496 1.76518V0.234818ZM13.0724 1.76518C13.495 1.76518 13.8375 1.4226 13.8375 1C13.8375 0.577402 13.495 0.234818 13.0724 0.234818V1.76518ZM1.0026 4.71325C0.580006 4.71325 0.237422 5.05584 0.237422 5.47844C0.237422 5.90103 0.580006 6.24362 1.0026 6.24362V4.71325ZM2.12532 6.24362C2.54792 6.24362 2.8905 5.90103 2.8905 5.47844C2.8905 5.05584 2.54792 4.71325 2.12532 4.71325V6.24362ZM6.33441 4.71325C5.91182 4.71325 5.56923 5.05584 5.56923 5.47844C5.56923 5.90103 5.91182 6.24362 6.33441 6.24362V4.71325ZM7.45713 6.24362C7.87973 6.24362 8.22231 5.90103 8.22231 5.47844C8.22231 5.05584 7.87973 4.71325 7.45713 4.71325V6.24362ZM11.9496 4.71317C11.527 4.71317 11.1845 5.05575 11.1845 5.47835C11.1845 5.90095 11.527 6.24353 11.9496 6.24353V4.71317ZM13.0724 6.24353C13.495 6.24353 13.8375 5.90095 13.8375 5.47835C13.8375 5.05575 13.495 4.71317 13.0724 4.71317V6.24353ZM1 9.46921C0.577402 9.46921 0.234818 9.8118 0.234818 10.2344C0.234818 10.657 0.577402 10.9996 1 10.9996V9.46921ZM2.12272 10.9996C2.54532 10.9996 2.8879 10.657 2.8879 10.2344C2.8879 9.8118 2.54532 9.46921 2.12272 9.46921V10.9996ZM19.6142 23.8687L19.2436 23.1993L19.6142 23.8687ZM18.5972 23.8687L18.9679 23.1993L18.5972 23.8687ZM18.4583 9.82309L18.0876 9.15366L18.4583 9.82309ZM19.7532 9.82309L20.1238 9.15366L19.7532 9.82309ZM24.3494 12.3679L23.9788 13.0373L24.3494 12.3679ZM13.862 12.3679L14.2327 13.0373L13.862 12.3679ZM1.0026 1.76527H2.12532V0.234903H1.0026V1.76527ZM6.33441 1.76527H7.45713V0.234903H6.33441V1.76527ZM11.9496 1.76518H13.0724V0.234818H11.9496V1.76518ZM1.0026 6.24362H2.12532V4.71325H1.0026V6.24362ZM6.33441 6.24362H7.45713V4.71325H6.33441V6.24362ZM11.9496 6.24353H13.0724V4.71317H11.9496V6.24353ZM1 10.9996H2.12272V9.46921H1V10.9996ZM24.2348 13.4698V14.7466H25.7652V13.4698H24.2348ZM13.9767 14.7466V13.4698H12.4463V14.7466H13.9767ZM14.2327 13.0373L18.8289 10.4925L18.0876 9.15366L13.4914 11.6984L14.2327 13.0373ZM19.3826 10.4925L23.9788 13.0373L24.7201 11.6984L20.1238 9.15366L19.3826 10.4925ZM19.2436 23.1993C19.158 23.2467 19.0535 23.2467 18.9679 23.1993L18.2266 24.5381C18.7734 24.8409 19.438 24.8409 19.9849 24.5381L19.2436 23.1993ZM18.8289 10.4925C19.001 10.3972 19.2105 10.3972 19.3826 10.4925L20.1238 9.15366C19.4906 8.80304 18.7209 8.80304 18.0876 9.15366L18.8289 10.4925ZM12.4463 14.7466C12.4463 18.8155 14.6598 22.5633 18.2266 24.5381L18.9679 23.1993C15.8864 21.4931 13.9767 18.2572 13.9767 14.7466H12.4463ZM24.2348 14.7466C24.2348 18.2572 22.3251 21.4931 19.2436 23.1993L19.9849 24.5381C23.5517 22.5633 25.7652 18.8155 25.7652 14.7466H24.2348ZM25.7652 13.4698C25.7652 12.7328 25.3643 12.0551 24.7201 11.6984L23.9788 13.0373C24.1377 13.1253 24.2348 13.2912 24.2348 13.4698H25.7652ZM13.9767 13.4698C13.9767 13.2912 14.0738 13.1253 14.2327 13.0373L13.4914 11.6984C12.8472 12.0551 12.4463 12.7328 12.4463 13.4698H13.9767Z" fill="#2647E6"/>
</svg>
