<svg width="29" height="28" viewBox="0 0 29 28" fill="none" xmlns="http://www.w3.org/2000/svg">
<path d="M6.38884 3.5057L6.54076 4.24015H6.54076L6.38884 3.5057ZM17.9998 1.10398L18.1517 1.83843L17.9998 1.10398ZM6.4 20.1465C5.98579 20.1465 5.65 20.4823 5.65 20.8965C5.65 21.3107 5.98579 21.6465 6.4 21.6465V20.1465ZM14.5 21.6465C14.9142 21.6465 15.25 21.3107 15.25 20.8965C15.25 20.4823 14.9142 20.1465 14.5 20.1465V21.6465ZM28 12.7584H28.75V12.0084H28V12.7584ZM28 19.5401V20.2901H28.75V19.5401H28ZM21.925 15.3993C21.5108 15.3993 21.175 15.7351 21.175 16.1493C21.175 16.5635 21.5108 16.8993 21.925 16.8993V15.3993ZM22.195 16.8993C22.6092 16.8993 22.945 16.5635 22.945 16.1493C22.945 15.7351 22.6092 15.3993 22.195 15.3993V16.8993ZM7.75 6.04854H21.25V4.54854H7.75V6.04854ZM27.25 12.0802V20.2183H28.75V12.0802H27.25ZM21.25 26.25H7.75V27.75H21.25V26.25ZM1.75 20.2183V12.0802H0.25V20.2183H1.75ZM7.75 26.25C4.4396 26.25 1.75 23.5528 1.75 20.2183H0.25C0.25 24.3746 3.60455 27.75 7.75 27.75V26.25ZM27.25 20.2183C27.25 23.5528 24.5604 26.25 21.25 26.25V27.75C25.3954 27.75 28.75 24.3746 28.75 20.2183H27.25ZM21.25 6.04854C24.5604 6.04854 27.25 8.74571 27.25 12.0802H28.75C28.75 7.92392 25.3954 4.54854 21.25 4.54854V6.04854ZM7.75 4.54854C3.60456 4.54854 0.25 7.92392 0.25 12.0802H1.75C1.75 8.74571 4.4396 6.04854 7.75 6.04854V4.54854ZM6.54076 4.24015L18.1517 1.83843L17.8479 0.369524L6.23692 2.77124L6.54076 4.24015ZM1.75 14.7929V10.1481H0.25V14.7929H1.75ZM18.1517 1.83843C20.7537 1.3002 23.2 3.29675 23.2 5.97672H24.7C24.7 2.3549 21.3893 -0.363025 17.8479 0.369524L18.1517 1.83843ZM6.23692 2.77124C2.74887 3.49274 0.25 6.57648 0.25 10.1481H1.75C1.75 7.28307 3.75389 4.81661 6.54076 4.24015L6.23692 2.77124ZM6.4 21.6465H14.5V20.1465H6.4V21.6465ZM21.925 13.5084H28V12.0084H21.925V13.5084ZM27.25 12.7584V19.5401H28.75V12.7584H27.25ZM28 18.7901H21.925V20.2901H28V18.7901ZM21.925 18.7901C20.4786 18.7901 19.3 17.6111 19.3 16.1493H17.8C17.8 18.4329 19.6435 20.2901 21.925 20.2901V18.7901ZM21.925 12.0084C19.6435 12.0084 17.8 13.8657 17.8 16.1493H19.3C19.3 14.6875 20.4786 13.5084 21.925 13.5084V12.0084ZM21.925 16.8993H22.195V15.3993H21.925V16.8993Z" fill="#2647E6"/>
</svg>
