<svg width="28" height="24" viewBox="0 0 28 24" fill="none" xmlns="http://www.w3.org/2000/svg">
<path d="M1 6.25C1 3.35051 3.32812 1 6.2 1H21.8C24.6719 1 27 3.35051 27 6.25V7.85525C27 8.10494 26.824 8.31579 26.5902 8.39718C25.3156 8.84085 24.4 10.0625 24.4 11.5C24.4 12.9375 25.3156 14.1591 26.5902 14.6028C26.824 14.6842 27 14.8951 27 15.1448V16.75C27 19.6495 24.6719 22 21.8 22H6.2C3.32812 22 1 19.6495 1 16.75V15.1448C1 14.8951 1.17602 14.6842 1.40983 14.6028C2.68438 14.1591 3.6 12.9375 3.6 11.5C3.6 10.0625 2.68438 8.84085 1.40983 8.39718C1.17602 8.31579 1 8.10494 1 7.85525V6.25Z" stroke="#2647E6" stroke-width="1.5"/>
<path d="M13.12 13.228V13.912H15.76V14.752H13.12V16H11.56V14.752H10.36V13.912H11.56V7.6H15.016C16.136 7.6 17.008 7.84 17.632 8.32C18.264 8.8 18.58 9.5 18.58 10.42C18.58 11.332 18.264 12.028 17.632 12.508C17.008 12.988 16.136 13.228 15.016 13.228H13.12ZM17.008 10.432C17.008 9.944 16.836 9.572 16.492 9.316C16.148 9.052 15.652 8.92 15.004 8.92H13.12V11.968H15.004C15.644 11.968 16.136 11.836 16.48 11.572C16.832 11.3 17.008 10.92 17.008 10.432Z" fill="#2647E6"/>
</svg>
