<svg width="23" height="28" viewBox="0 0 23 28" fill="none" xmlns="http://www.w3.org/2000/svg">
<path d="M12.1374 26.834L12.503 27.4889L12.1374 26.834ZM10.8626 26.834L10.497 27.4889L10.8626 26.834ZM10.8626 1.16599L11.2282 1.82084L10.8626 1.16599ZM12.1374 1.16599L12.503 0.511132L12.1374 1.16599ZM7.75094 25.0968L8.11654 24.4419L7.75094 25.0968ZM15.2491 25.0968L14.8835 24.4419L15.2491 25.0968ZM21.3249 6.29538L20.9593 6.95024L21.3249 6.29538ZM1.67509 6.29538L1.30949 5.64053L1.67509 6.29538ZM10.8437 16.638L10.3121 17.167C10.4529 17.3084 10.6442 17.388 10.8437 17.388C11.0433 17.388 11.2346 17.3084 11.3754 17.167L10.8437 16.638ZM8.75039 13.471C8.45822 13.1774 7.98334 13.1762 7.68973 13.4684C7.39611 13.7605 7.39494 14.2354 7.68711 14.529L8.75039 13.471ZM16.6254 11.891C16.9176 11.5974 16.9164 11.1226 16.6228 10.8304C16.3292 10.5382 15.8543 10.5394 15.5621 10.833L16.6254 11.891ZM21.25 7.44839V13.5667H22.75V7.44839H21.25ZM1.75 13.5667V7.44839H0.25V13.5667H1.75ZM2.0407 6.95024L11.2282 1.82084L10.497 0.511132L1.30949 5.64053L2.0407 6.95024ZM11.7718 1.82084L20.9593 6.95024L21.6905 5.64053L12.503 0.511132L11.7718 1.82084ZM14.8835 24.4419L11.7718 26.1792L12.503 27.4889L15.6147 25.7516L14.8835 24.4419ZM11.2282 26.1792L8.11654 24.4419L7.38533 25.7516L10.497 27.4889L11.2282 26.1792ZM11.7718 26.1792C11.6026 26.2736 11.3974 26.2736 11.2282 26.1792L10.497 27.4889C11.1206 27.837 11.8794 27.837 12.503 27.4889L11.7718 26.1792ZM11.2282 1.82084C11.3974 1.72639 11.6026 1.72639 11.7718 1.82084L12.503 0.511132C11.8794 0.162956 11.1206 0.162956 10.497 0.511132L11.2282 1.82084ZM0.25 13.5667C0.25 18.6274 2.98015 23.2922 7.38533 25.7516L8.11654 24.4419C4.18826 22.2487 1.75 18.0863 1.75 13.5667H0.25ZM21.25 13.5667C21.25 18.0863 18.8117 22.2487 14.8835 24.4419L15.6147 25.7516C20.0198 23.2922 22.75 18.6274 22.75 13.5667H21.25ZM22.75 7.44839C22.75 6.69884 22.3456 6.00628 21.6905 5.64053L20.9593 6.95024C21.1375 7.04974 21.25 7.2399 21.25 7.44839H22.75ZM1.75 7.44839C1.75 7.2399 1.86247 7.04974 2.0407 6.95024L1.30949 5.64053C0.654367 6.00628 0.25 6.69884 0.25 7.44839H1.75ZM11.3754 16.1089L8.75039 13.471L7.68711 14.529L10.3121 17.167L11.3754 16.1089ZM11.3754 17.167L16.6254 11.891L15.5621 10.833L10.3121 16.1089L11.3754 17.167Z" fill="#2647E6"/>
</svg>
