<svg width="24" height="23" viewBox="0 0 24 23" fill="none" xmlns="http://www.w3.org/2000/svg">
<path fill-rule="evenodd" clip-rule="evenodd" d="M13.8145 1.04392C15.2246 -0.347229 17.5116 -0.348081 18.9227 1.04201L22.1968 4.26743C23.5959 5.64567 23.6104 7.87688 22.2294 9.2727L10.0975 21.5347C9.1705 22.4717 7.89904 23.0001 6.57138 23L2.9552 22.9998C1.27433 22.9998 -0.0680232 21.6195 0.00266956 19.9638L0.157918 16.3279C0.209817 15.1124 0.722625 13.9604 1.59487 13.0998L13.8145 1.04392ZM17.5301 2.41595C16.8887 1.78409 15.8491 1.78448 15.2082 2.41682L13.0236 4.57212L18.647 10.1118L20.8191 7.91649C21.4468 7.28203 21.4402 6.26784 20.8042 5.64137L17.5301 2.41595ZM2.98853 14.4727L11.631 5.94606L17.2713 11.5023L8.68716 20.1785C8.13094 20.7407 7.36807 21.0577 6.57147 21.0577L2.95528 21.0575C2.39499 21.0575 1.94754 20.5974 1.97111 20.0455L2.12636 16.4096C2.1575 15.6803 2.46518 14.9891 2.98853 14.4727Z" fill="#2647E6"/>
<path d="M23.0149 22.9057C23.559 22.9057 24 22.4709 24 21.9346C24 21.3982 23.559 20.9634 23.0149 20.9634H14.9713C14.4272 20.9634 13.9862 21.3982 13.9862 21.9346C13.9862 22.4709 14.4272 22.9057 14.9713 22.9057H23.0149Z" fill="#2647E6"/>
</svg>
