<svg width="33" height="34" viewBox="0 0 33 34" fill="none" xmlns="http://www.w3.org/2000/svg">
<path d="M20.25 13.5C20.25 13.9142 20.5858 14.25 21 14.25C21.4142 14.25 21.75 13.9142 21.75 13.5H20.25ZM15.4996 1.89954L16.0758 1.4194L15.4996 1.89954ZM20.4206 7.80466L19.8444 8.2848V8.2848L20.4206 7.80466ZM12.25 26.75C12.6642 26.75 13 26.4142 13 26C13 25.5858 12.6642 25.25 12.25 25.25V26.75ZM15.5 1.625C15.5 1.21079 15.1642 0.875 14.75 0.875C14.3358 0.875 14 1.21079 14 1.625H15.5ZM20.375 9.25C20.7892 9.25 21.125 8.91421 21.125 8.5C21.125 8.08579 20.7892 7.75 20.375 7.75V9.25ZM1.75 21V6H0.25V21H1.75ZM20.25 9.40512V13.5H21.75V9.40512H20.25ZM14.9234 2.37968L19.8444 8.2848L20.9967 7.32453L16.0758 1.4194L14.9234 2.37968ZM12.25 25.25H6V26.75H12.25V25.25ZM13.5791 1.75C14.0984 1.75 14.591 1.98069 14.9234 2.37968L16.0758 1.4194C15.4583 0.678425 14.5436 0.25 13.5791 0.25V1.75ZM0.25 21C0.25 24.1756 2.82436 26.75 6 26.75V25.25C3.65279 25.25 1.75 23.3472 1.75 21H0.25ZM21.75 9.40512C21.75 8.64483 21.4834 7.9086 20.9967 7.32453L19.8444 8.2848C20.1065 8.5993 20.25 8.99574 20.25 9.40512H21.75ZM1.75 6C1.75 3.65279 3.65279 1.75 6 1.75V0.25C2.82436 0.25 0.25 2.82436 0.25 6H1.75ZM14 1.625V6H15.5V1.625H14ZM17.25 9.25H20.375V7.75H17.25V9.25ZM14 6C14 7.79493 15.4551 9.25 17.25 9.25V7.75C16.2835 7.75 15.5 6.9665 15.5 6H14ZM6 1.75H13.5791V0.25H6V1.75Z" fill="#2647E6"/>
<path d="M20.51 22.9V24H15.35V23.13L18.13 20.49C18.4433 20.19 18.6533 19.93 18.76 19.71C18.8733 19.4833 18.93 19.26 18.93 19.04C18.93 18.7133 18.82 18.4633 18.6 18.29C18.38 18.1167 18.0567 18.03 17.63 18.03C16.9167 18.03 16.37 18.2733 15.99 18.76L15.08 18.06C15.3533 17.6933 15.72 17.41 16.18 17.21C16.6467 17.0033 17.1667 16.9 17.74 16.9C18.5 16.9 19.1067 17.08 19.56 17.44C20.0133 17.8 20.24 18.29 20.24 18.91C20.24 19.29 20.16 19.6467 20 19.98C19.84 20.3133 19.5333 20.6933 19.08 21.12L17.21 22.9H20.51ZM26.3303 22.9V24H21.1703V23.13L23.9503 20.49C24.2636 20.19 24.4736 19.93 24.5803 19.71C24.6936 19.4833 24.7503 19.26 24.7503 19.04C24.7503 18.7133 24.6403 18.4633 24.4203 18.29C24.2003 18.1167 23.877 18.03 23.4503 18.03C22.737 18.03 22.1903 18.2733 21.8103 18.76L20.9003 18.06C21.1736 17.6933 21.5403 17.41 22.0003 17.21C22.467 17.0033 22.987 16.9 23.5603 16.9C24.3203 16.9 24.927 17.08 25.3803 17.44C25.8336 17.8 26.0603 18.29 26.0603 18.91C26.0603 19.29 25.9803 19.6467 25.8203 19.98C25.6603 20.3133 25.3536 20.6933 24.9003 21.12L23.0303 22.9H26.3303ZM30.0606 19.89C30.7073 19.97 31.2006 20.19 31.5406 20.55C31.8806 20.91 32.0506 21.36 32.0506 21.9C32.0506 22.3067 31.9473 22.6767 31.7406 23.01C31.534 23.3433 31.2206 23.61 30.8006 23.81C30.3873 24.0033 29.8806 24.1 29.2806 24.1C28.7806 24.1 28.2973 24.03 27.8306 23.89C27.3706 23.7433 26.9773 23.5433 26.6506 23.29L27.2106 22.28C27.464 22.4933 27.7706 22.6633 28.1306 22.79C28.4973 22.91 28.874 22.97 29.2606 22.97C29.7206 22.97 30.0806 22.8767 30.3406 22.69C30.6073 22.4967 30.7406 22.2367 30.7406 21.91C30.7406 21.5833 30.614 21.33 30.3606 21.15C30.114 20.9633 29.734 20.87 29.2206 20.87H28.5806V19.98L30.1706 18.09H26.9906V17H31.7606V17.87L30.0606 19.89Z" fill="#2647E6"/>
</svg>
