<svg width="24" height="24" viewBox="0 0 24 24" fill="none" xmlns="http://www.w3.org/2000/svg">
<rect width="24" height="24" rx="12" fill="#C9F28D"/>
<path d="M11.148 9.524H12.898V17H11.148V9.524ZM12.03 8.292C11.7127 8.292 11.4467 8.194 11.232 7.998C11.0173 7.79267 10.91 7.54067 10.91 7.242C10.91 6.94333 11.0173 6.696 11.232 6.5C11.4467 6.29467 11.7127 6.192 12.03 6.192C12.3473 6.192 12.6133 6.29 12.828 6.486C13.0427 6.67267 13.15 6.91067 13.15 7.2C13.15 7.508 13.0427 7.76933 12.828 7.984C12.6227 8.18933 12.3567 8.292 12.03 8.292Z" fill="#141415"/>
</svg>
