<svg width="13" height="13" viewBox="0 0 13 13" fill="none" xmlns="http://www.w3.org/2000/svg">
<g clip-path="url(#clip0_1520_10457)">
<path d="M11.0955 1.90311C8.55673 -0.634908 4.44113 -0.634299 1.90311 1.90451C-0.634908 4.44332 -0.634299 8.55888 1.90451 11.0969C4.44332 13.6349 8.55888 13.6343 11.0969 11.0955C12.3158 9.87623 13.0004 8.22266 13 6.49861C12.9997 4.77484 12.3146 3.12181 11.0955 1.90311ZM9.84403 9.05443C9.84375 9.05471 9.84347 9.05502 9.84317 9.0553V9.05314L9.51383 9.3803C9.0879 9.81161 8.46758 9.98906 7.87798 9.8483C7.28397 9.6893 6.71928 9.43621 6.20533 9.09864C5.72783 8.79347 5.28532 8.43673 4.88583 8.0348C4.51825 7.66991 4.18802 7.26924 3.89998 6.8388C3.58494 6.37562 3.33558 5.87106 3.15898 5.33946C2.95654 4.71495 3.1243 4.02968 3.59233 3.5693L3.97798 3.18364C4.08521 3.07593 4.25944 3.07555 4.36712 3.18278C4.3674 3.18305 4.36771 3.18333 4.36798 3.18364L5.58564 4.4013C5.69335 4.50852 5.69373 4.68275 5.58651 4.79043C5.58623 4.79071 5.58595 4.79099 5.58564 4.7913L4.87064 5.5063C4.66549 5.70922 4.63969 6.03168 4.80998 6.26464C5.06859 6.61955 5.35477 6.95351 5.66583 7.26348C6.01264 7.61179 6.38966 7.92864 6.79248 8.21032C7.02524 8.37267 7.34079 8.3453 7.54214 8.14532L8.2333 7.44332C8.34053 7.33562 8.51476 7.33523 8.62244 7.44246C8.62272 7.44274 8.623 7.44302 8.6233 7.44332L9.84314 8.66532C9.95087 8.77252 9.95126 8.94673 9.84403 9.05443Z" fill="#737581"/>
</g>
<defs>
<clipPath id="clip0_1520_10457">
<rect width="13" height="13" fill="white"/>
</clipPath>
</defs>
</svg>
