<svg width="24" height="24" viewBox="0 0 24 24" fill="none" xmlns="http://www.w3.org/2000/svg">
<rect x="2.00293" y="2.00391" width="20" height="20" rx="5" stroke="white" stroke-width="1.5"/>
<path d="M2.06602 16.8936C1.72897 17.1344 1.6509 17.6028 1.89165 17.9398C2.13241 18.2769 2.60082 18.355 2.93788 18.1142L2.06602 16.8936ZM21.5218 16.5801C21.84 16.8452 22.3129 16.8023 22.5781 16.484C22.8433 16.1658 22.8003 15.6929 22.4821 15.4277L21.5218 16.5801ZM14.8396 12.1662L15.37 12.6966L14.8396 12.1662ZM17.2647 12.0562L16.7846 12.6324L17.2647 12.0562ZM7.08017 16.0821L6.54984 16.6125L7.08017 16.0821ZM2.93788 18.1142L5.19708 16.5005L4.32522 15.2799L2.06602 16.8936L2.93788 18.1142ZM6.54984 16.6125L7.62309 17.6857L8.68375 16.625L7.6105 15.5518L6.54984 16.6125ZM10.3808 17.6857L15.37 12.6966L14.3093 11.6359L9.32015 16.625L10.3808 17.6857ZM16.7846 12.6324L21.5218 16.5801L22.4821 15.4277L17.7449 11.4801L16.7846 12.6324ZM15.37 12.6966C15.754 12.3126 16.3674 12.2847 16.7846 12.6324L17.7449 11.4801C16.7317 10.6357 15.2419 10.7033 14.3093 11.6359L15.37 12.6966ZM7.62309 17.6857C8.38462 18.4472 9.61929 18.4472 10.3808 17.6857L9.32015 16.625C9.14442 16.8008 8.85949 16.8008 8.68375 16.625L7.62309 17.6857ZM5.19708 16.5005C5.61475 16.2022 6.1869 16.2495 6.54984 16.6125L7.6105 15.5518C6.72906 14.6704 5.33957 14.5554 4.32522 15.2799L5.19708 16.5005Z" fill="white"/>
<circle r="2" transform="matrix(-1 0 0 1 8.00195 8.00195)" stroke="white" stroke-width="1.5"/>
</svg>
