<svg width="15" height="16" viewBox="0 0 15 16" fill="none" xmlns="http://www.w3.org/2000/svg">
<path d="M8.56983 1.97021C8.56983 1.41793 8.12212 0.970215 7.56983 0.970215C7.01755 0.970215 6.56983 1.41793 6.56983 1.97021L8.56983 1.97021ZM6.56983 14.0318C6.56983 14.584 7.01755 15.0318 7.56983 15.0318C8.12212 15.0318 8.56983 14.584 8.56983 14.0318H6.56983ZM13.6006 9.00098C14.1529 9.00098 14.6006 8.55327 14.6006 8.00098C14.6006 7.4487 14.1529 7.00098 13.6006 7.00098V9.00098ZM1.53906 7.00098C0.986778 7.00098 0.539062 7.4487 0.539062 8.00098C0.539062 8.55327 0.986778 9.00098 1.53906 9.00098V7.00098ZM6.56983 1.97021L6.56983 14.0318H8.56983L8.56983 1.97021L6.56983 1.97021ZM13.6006 7.00098H1.53906V9.00098H13.6006V7.00098Z" fill="#2647E6"/>
</svg>
