<svg width="25" height="24" viewBox="0 0 25 24" fill="none" xmlns="http://www.w3.org/2000/svg">
<path d="M9.5 8.75C9.91421 8.75 10.25 8.41421 10.25 8C10.25 7.58579 9.91421 7.25 9.5 7.25L9.5 8.75ZM17.5 7.25C17.0858 7.25 16.75 7.58579 16.75 8C16.75 8.41421 17.0858 8.75 17.5 8.75L17.5 7.25ZM22.75 12L22.75 17L24.25 17L24.25 12L22.75 12ZM19.5 20.25L7.5 20.25L7.5 21.75L19.5 21.75L19.5 20.25ZM4.25 17L4.25 12L2.75 12L2.75 17L4.25 17ZM7.5 8.75L9.5 8.75L9.5 7.25L7.5 7.25L7.5 8.75ZM17.5 8.75L19.5 8.75L19.5 7.25L17.5 7.25L17.5 8.75ZM4.25 12C4.25 10.2051 5.70507 8.75 7.5 8.75L7.5 7.25C4.87665 7.25 2.75 9.37665 2.75 12L4.25 12ZM7.5 20.25C5.70507 20.25 4.25 18.7949 4.25 17L2.75 17C2.75 19.6234 4.87665 21.75 7.5 21.75L7.5 20.25ZM22.75 17C22.75 18.7949 21.2949 20.25 19.5 20.25L19.5 21.75C22.1234 21.75 24.25 19.6234 24.25 17L22.75 17ZM24.25 12C24.25 9.37665 22.1234 7.25 19.5 7.25L19.5 8.75C21.2949 8.75 22.75 10.2051 22.75 12L24.25 12Z" fill="#2B3F6C"/>
<path d="M10.5 13L12.7929 15.2929C13.1834 15.6834 13.8166 15.6834 14.2071 15.2929L16.5 13" stroke="#2B3F6C" stroke-width="1.5" stroke-linecap="round"/>
<path d="M13.5 15L13.5 3" stroke="#2B3F6C" stroke-width="1.5" stroke-linecap="round"/>
</svg>
