<svg width="14" height="8" viewBox="0 0 14 8" fill="none" xmlns="http://www.w3.org/2000/svg">
<path d="M1.70711 0.292893C1.31658 -0.0976311 0.683418 -0.0976311 0.292893 0.292893C-0.0976311 0.683418 -0.0976311 1.31658 0.292893 1.70711L1.70711 0.292893ZM13.7071 1.70711C14.0976 1.31658 14.0976 0.683418 13.7071 0.292893C13.3166 -0.0976311 12.6834 -0.0976311 12.2929 0.292893L13.7071 1.70711ZM0.292893 1.70711L4.87868 6.29289L6.29289 4.87868L1.70711 0.292893L0.292893 1.70711ZM9.12132 6.29289L13.7071 1.70711L12.2929 0.292893L7.70711 4.87868L9.12132 6.29289ZM4.87868 6.29289C6.05025 7.46446 7.94975 7.46447 9.12132 6.29289L7.70711 4.87868C7.31658 5.2692 6.68342 5.2692 6.29289 4.87868L4.87868 6.29289Z" fill="#2647E6"/>
</svg>
