<svg width="26" height="21" viewBox="0 0 26 21" fill="none" xmlns="http://www.w3.org/2000/svg">
<path d="M1.54228 7.79371L1.31606 8.50878L1.54228 7.79371ZM1.54228 13.3752L1.31606 12.6601L1.54228 13.3752ZM24.7542 13.3752L24.528 14.0903L24.7542 13.3752ZM24.7542 7.79371L24.9804 8.50878L24.7542 7.79371ZM5.22461 0.455078C2.60126 0.455078 0.474609 2.58172 0.474609 5.20508H1.97461C1.97461 3.41015 3.42968 1.95508 5.22461 1.95508V0.455078ZM21.0718 0.455078H5.22461V1.95508H21.0718V0.455078ZM25.8218 5.20508C25.8218 2.58172 23.6952 0.455078 21.0718 0.455078V1.95508C22.8668 1.95508 24.3218 3.41015 24.3218 5.20508H25.8218ZM25.8218 7.38398V5.20508H24.3218V7.38398H25.8218ZM23.4371 10.5845C23.4371 9.62254 24.0771 8.79454 24.9804 8.50878L24.528 7.07863C23.0327 7.55165 21.9371 8.93571 21.9371 10.5845H23.4371ZM24.9804 12.6601C24.0771 12.3744 23.4371 11.5464 23.4371 10.5845H21.9371C21.9371 12.2332 23.0327 13.6173 24.528 14.0903L24.9804 12.6601ZM25.8218 15.9638V13.7849H24.3218V15.9638H25.8218ZM21.0718 20.7138C23.6952 20.7138 25.8218 18.5872 25.8218 15.9638H24.3218C24.3218 17.7588 22.8668 19.2138 21.0718 19.2138V20.7138ZM5.22461 20.7138H21.0718V19.2138H5.22461V20.7138ZM0.474609 15.9638C0.474609 18.5872 2.60126 20.7138 5.22461 20.7138V19.2138C3.42969 19.2138 1.97461 17.7588 1.97461 15.9638H0.474609ZM0.474609 13.7849V15.9638H1.97461V13.7849H0.474609ZM1.76849 14.0903C3.26372 13.6173 4.35933 12.2332 4.35933 10.5845H2.85933C2.85933 11.5464 2.21936 12.3744 1.31606 12.6601L1.76849 14.0903ZM4.35933 10.5845C4.35933 8.93572 3.26372 7.55165 1.76849 7.07864L1.31606 8.50878C2.21936 8.79454 2.85933 9.62254 2.85933 10.5845H4.35933ZM0.474609 5.20508V7.38398H1.97461V5.20508H0.474609ZM1.76849 7.07864C1.85139 7.10486 1.97461 7.20081 1.97461 7.38398H0.474609C0.474609 7.94862 0.869465 8.3675 1.31606 8.50878L1.76849 7.07864ZM1.97461 13.7849C1.97461 13.9681 1.85139 14.0641 1.76849 14.0903L1.31606 12.6601C0.869466 12.8014 0.474609 13.2203 0.474609 13.7849H1.97461ZM24.528 14.0903C24.4451 14.0641 24.3218 13.9681 24.3218 13.7849H25.8218C25.8218 13.2203 25.427 12.8014 24.9804 12.6601L24.528 14.0903ZM24.3218 7.38398C24.3218 7.20081 24.4451 7.10486 24.528 7.07863L24.9804 8.50878C25.427 8.3675 25.8218 7.94862 25.8218 7.38398H24.3218Z" fill="#2647E6"/>
<circle r="0.935942" transform="matrix(0.713044 0.70112 -0.713044 0.70112 10.5234 8.00284)" fill="#2647E6"/>
<circle r="0.935942" transform="matrix(0.713044 0.70112 -0.713044 0.70112 15.7754 13.1659)" fill="#2647E6"/>
<path d="M9.94464 12.6828C9.64929 12.9732 9.64929 13.4441 9.94464 13.7345C10.24 14.0249 10.7189 14.0249 11.0142 13.7345L9.94464 12.6828ZM16.3531 8.48482C16.6485 8.19441 16.6485 7.72356 16.3531 7.43314C16.0578 7.14273 15.5789 7.14273 15.2836 7.43314L16.3531 8.48482ZM15.2836 7.43314L9.94464 12.6828L11.0142 13.7345L16.3531 8.48482L15.2836 7.43314Z" fill="#2647E6"/>
</svg>
