<svg width="23" height="26" viewBox="0 0 23 26" fill="none" xmlns="http://www.w3.org/2000/svg">
<path d="M10.8437 19L10.3093 19.5261L10.8437 20.0691L11.3782 19.5261L10.8437 19ZM9.40949 16.4739C9.11891 16.1787 8.64405 16.1749 8.34886 16.4655C8.05367 16.7561 8.04993 17.2309 8.34051 17.5261L9.40949 16.4739ZM15.3157 15.5261C15.6063 15.2309 15.6026 14.7561 15.3074 14.4655C15.0122 14.1749 14.5373 14.1787 14.2468 14.4739L15.3157 15.5261ZM6.25 9.75H16.75V8.25H6.25V9.75ZM21.25 14.3333V19.6667H22.75V14.3333H21.25ZM16.75 24.25H6.25V25.75H16.75V24.25ZM1.75 19.6667V14.3333H0.25V19.6667H1.75ZM6.25 24.25C3.77581 24.25 1.75 22.2092 1.75 19.6667H0.25C0.25 23.0152 2.9252 25.75 6.25 25.75V24.25ZM21.25 19.6667C21.25 22.2092 19.2242 24.25 16.75 24.25V25.75C20.0748 25.75 22.75 23.0152 22.75 19.6667H21.25ZM16.75 9.75C19.2242 9.75 21.25 11.7908 21.25 14.3333H22.75C22.75 10.9848 20.0748 8.25 16.75 8.25V9.75ZM6.25 8.25C2.9252 8.25 0.25 10.9848 0.25 14.3333H1.75C1.75 11.7908 3.77581 9.75 6.25 9.75V8.25ZM11.3782 18.4739L9.40949 16.4739L8.34051 17.5261L10.3093 19.5261L11.3782 18.4739ZM11.3782 19.5261L15.3157 15.5261L14.2468 14.4739L10.3093 18.4739L11.3782 19.5261ZM16 6.33333V9H17.5V6.33333H16ZM7 9V6.33333H5.5V9H7ZM11.5 1.75C13.9742 1.75 16 3.79085 16 6.33333H17.5C17.5 2.98478 14.8248 0.25 11.5 0.25V1.75ZM11.5 0.25C8.1752 0.25 5.5 2.98478 5.5 6.33333H7C7 3.79085 9.02581 1.75 11.5 1.75V0.25Z" fill="#2647E6"/>
</svg>
