<svg width="32" height="23" viewBox="0 0 32 23" fill="none" xmlns="http://www.w3.org/2000/svg">
<path d="M10 1L10 1.75L10 1ZM4 1V0.25V1ZM1 4L1.75 4L1 4ZM1 19H0.25H1ZM4 22V22.75V22ZM10 22V21.25V22ZM13 19H13.75H13ZM13.75 15.7C13.75 15.2858 13.4142 14.95 13 14.95C12.5858 14.95 12.25 15.2858 12.25 15.7H13.75ZM12.25 7.3C12.25 7.71421 12.5858 8.05 13 8.05C13.4142 8.05 13.75 7.71421 13.75 7.3H12.25ZM13 4H12.25H13ZM11.5 10.75C11.0858 10.75 10.75 11.0858 10.75 11.5C10.75 11.9142 11.0858 12.25 11.5 12.25V10.75ZM31 12.25C31.4142 12.25 31.75 11.9142 31.75 11.5C31.75 11.0858 31.4142 10.75 31 10.75V12.25ZM10 0.250001L4 0.25V1.75L10 1.75L10 0.250001ZM0.250001 4L0.25 19H1.75L1.75 4L0.250001 4ZM4 22.75H10V21.25H4V22.75ZM13.75 19V15.7H12.25V19H13.75ZM13.75 7.3V4H12.25V7.3H13.75ZM10 22.75C12.0711 22.75 13.75 21.0711 13.75 19H12.25C12.25 20.2426 11.2426 21.25 10 21.25V22.75ZM0.25 19C0.25 21.0711 1.92893 22.75 4 22.75L4 21.25C2.75736 21.25 1.75 20.2426 1.75 19H0.25ZM4 0.25C1.92893 0.25 0.250001 1.92893 0.250001 4L1.75 4C1.75 2.75736 2.75736 1.75 4 1.75V0.25ZM10 1.75C11.2426 1.75 12.25 2.75736 12.25 4L13.75 4C13.75 1.92894 12.0711 0.250001 10 0.250001L10 1.75ZM11.5 12.25L31 12.25V10.75L11.5 10.75V12.25Z" fill="#254BFF"/>
</svg>
