<svg width="20" height="24" viewBox="0 0 20 24" fill="none" xmlns="http://www.w3.org/2000/svg">
<path d="M19 4.23529C19 6.0221 14.9706 7.47059 10 7.47059C5.02944 7.47059 1 6.0221 1 4.23529M19 4.23529C19 2.44849 14.9706 1 10 1C5.02944 1 1 2.44849 1 4.23529M19 4.23529V19.7647C19 21.5515 14.9706 23 10 23C5.02944 23 1 21.5515 1 19.7647V4.23529M19 9.41176C19 11.1986 14.9706 12.6471 10 12.6471C5.02944 12.6471 1 11.1986 1 9.41176M19 14.5882C19 16.375 14.9706 17.8235 10 17.8235C5.02944 17.8235 1 16.375 1 14.5882" stroke="#2647E6" stroke-width="1.5"/>
</svg>
