<svg width="17" height="3" viewBox="0 0 17 3" fill="none" xmlns="http://www.w3.org/2000/svg">
<path d="M3.4 1.5C3.4 2.32843 2.63888 3 1.7 3C0.761116 3 0 2.32843 0 1.5C0 0.671573 0.761116 0 1.7 0C2.63888 0 3.4 0.671573 3.4 1.5Z" fill="#2647E6"/>
<path d="M10.2 1.5C10.2 2.32843 9.43888 3 8.5 3C7.56112 3 6.8 2.32843 6.8 1.5C6.8 0.671573 7.56112 0 8.5 0C9.43888 0 10.2 0.671573 10.2 1.5Z" fill="#2647E6"/>
<path d="M17 1.5C17 2.32843 16.2389 3 15.3 3C14.3611 3 13.6 2.32843 13.6 1.5C13.6 0.671573 14.3611 0 15.3 0C16.2389 0 17 0.671573 17 1.5Z" fill="#2647E6"/>
</svg>
