<svg width="18" height="18" viewBox="0 0 18 18" fill="none" xmlns="http://www.w3.org/2000/svg">
<path d="M14.8664 5.53285L15.5722 4.82712C15.8464 4.55287 15.8464 4.1082 15.5722 3.83409C15.2979 3.55984 14.8534 3.55984 14.5791 3.83409L13.8734 4.53983C12.6893 3.55325 11.2505 2.95724 9.71576 2.81772V1.40446H10.3946C10.7824 1.40446 11.0967 1.08998 11.0967 0.702164C11.0967 0.314346 10.7824 0 10.3946 0H7.63248C7.24466 0 6.93031 0.314346 6.93031 0.702164C6.93031 1.08998 7.24466 1.40446 7.63248 1.40446H8.31129V2.81772C4.46938 3.16708 1.40625 6.39459 1.40625 10.3927C1.40625 14.5971 4.80858 18 9.0136 18C13.2179 18 16.6208 14.5977 16.6208 10.3927C16.6208 8.59666 16.0023 6.89584 14.8664 5.53285ZM9.01346 16.5955C5.59328 16.5955 2.81058 13.813 2.81058 10.3927C2.81058 6.97247 5.59328 4.18991 9.01346 4.18991C12.4338 4.18991 15.2163 6.97247 15.2163 10.3927C15.2163 13.813 12.4338 16.5955 9.01346 16.5955ZM12.2677 7.1385C12.542 7.41275 12.542 7.85742 12.2677 8.13153L9.51004 10.8892C9.23579 11.1635 8.79112 11.1635 8.51701 10.8892C8.24277 10.615 8.24277 10.1703 8.51701 9.89621L11.2746 7.1385C11.5488 6.86426 11.9935 6.86426 12.2677 7.1385Z" fill="#737581"/>
</svg>
