<svg width="25" height="21" viewBox="0 0 25 21" fill="none" xmlns="http://www.w3.org/2000/svg">
<path d="M9.1313 19.3768C8.41205 19.3768 8.53427 19.1052 8.28621 18.4204L6.17114 11.4594L22.452 1.80084" fill="#C8DAEA"/>
<path d="M9.13062 19.3767C9.68564 19.3767 9.93087 19.1229 10.2407 18.8217L13.2008 15.9433L9.50841 13.7167" fill="#A9C9DD"/>
<path d="M9.50968 13.7173L18.4568 20.3275C19.4777 20.8908 20.2146 20.5992 20.4689 19.3796L24.1108 2.21753C24.4837 0.722613 23.541 0.0445892 22.5643 0.488021L1.17899 8.73409C-0.280754 9.31959 -0.272244 10.134 0.91291 10.4969L6.40085 12.2097L19.106 4.19419C19.7058 3.83048 20.2563 4.02602 19.8045 4.42701" fill="url(#paint0_linear_1638_10259)"/>
<defs>
<linearGradient id="paint0_linear_1638_10259" x1="10.4233" y1="10.5649" x2="12.7954" y2="18.2382" gradientUnits="userSpaceOnUse">
<stop stop-color="#EFF7FC"/>
<stop offset="1" stop-color="white"/>
</linearGradient>
</defs>
</svg>
