<svg width="32" height="32" viewBox="0 0 32 32" fill="none" xmlns="http://www.w3.org/2000/svg">
<rect width="32" height="32" fill="white"/>
<path d="M23.2917 15.9987C23.2917 16.4819 23.6834 16.8737 24.1667 16.8737C24.6499 16.8737 25.0417 16.4819 25.0417 15.9987H23.2917ZM16 28.5404C16.4832 28.5404 16.875 28.1486 16.875 27.6654C16.875 27.1821 16.4832 26.7904 16 26.7904V28.5404ZM19.033 5.1716L18.3608 5.73176L19.033 5.1716ZM23.6259 10.6831L22.9537 11.2432L23.6259 10.6831ZM6.375 22.9987V8.9987H4.625V22.9987H6.375ZM10.1667 5.20703H14.8333V3.45703H10.1667V5.20703ZM14.8333 5.20703H17.2405V3.45703H14.8333V5.20703ZM23.2917 12.1768V15.9987H25.0417V12.1768H23.2917ZM18.3608 5.73176L22.9537 11.2432L24.298 10.1229L19.7052 4.61144L18.3608 5.73176ZM16 26.7904H10.1667V28.5404H16V26.7904ZM17.2405 5.20703C17.6733 5.20703 18.0837 5.39927 18.3608 5.73176L19.7052 4.61144C19.0956 3.87996 18.1926 3.45703 17.2405 3.45703V5.20703ZM4.625 22.9987C4.625 26.0593 7.10609 28.5404 10.1667 28.5404V26.7904C8.07259 26.7904 6.375 25.0928 6.375 22.9987H4.625ZM25.0417 12.1768C25.0417 11.4263 24.7785 10.6995 24.298 10.1229L22.9537 11.2432C23.1721 11.5053 23.2917 11.8357 23.2917 12.1768H25.0417ZM6.375 8.9987C6.375 6.90462 8.07259 5.20703 10.1667 5.20703V3.45703C7.10609 3.45703 4.625 5.93812 4.625 8.9987H6.375Z" fill="#2647E6"/>
<path d="M20.6641 24.166H27.6641" stroke="#2647E6" stroke-width="1.75" stroke-linecap="round" stroke-linejoin="round"/>
<path d="M24.1641 20.666L24.1641 27.666" stroke="#2647E6" stroke-width="1.75" stroke-linecap="round" stroke-linejoin="round"/>
<path d="M18.3359 4.91602V8.99935C18.3359 10.288 19.3806 11.3327 20.6693 11.3327H23.5859" stroke="#2647E6" stroke-width="1.75" stroke-linecap="round"/>
</svg>
