<svg width="28" height="28" viewBox="0 0 28 28" fill="none" xmlns="http://www.w3.org/2000/svg">
<path d="M22.4557 12.1531C22.4557 15.0071 20.7509 18.0393 18.7007 20.4224C17.6887 21.5989 16.6267 22.5765 15.7203 23.2522C15.2662 23.5907 14.8653 23.8429 14.5408 24.0063C14.3789 24.0878 14.2469 24.1417 14.1453 24.174C14.0386 24.2078 13.9938 24.2087 13.9974 24.2087V25.9587C14.4422 25.9587 14.9144 25.7775 15.3279 25.5693C15.769 25.3471 16.2577 25.0343 16.7662 24.6553C17.7847 23.896 18.9394 22.8283 20.0274 21.5637C22.1772 19.0647 24.2057 15.6316 24.2057 12.1531H22.4557ZM13.9974 24.2087C14.001 24.2087 13.9561 24.2078 13.8495 24.174C13.7479 24.1417 13.6159 24.0878 13.454 24.0063C13.1295 23.8429 12.7286 23.5907 12.2745 23.2522C11.3681 22.5765 10.3061 21.5989 9.29405 20.4224C7.24389 18.0393 5.53906 15.0071 5.53906 12.1531H3.78906C3.78906 15.6316 5.81757 19.0647 7.96741 21.5637C9.05534 22.8283 10.2101 23.896 11.2286 24.6553C11.737 25.0343 12.2257 25.3471 12.6669 25.5693C13.0804 25.7775 13.5526 25.9587 13.9974 25.9587V24.2087ZM5.53906 12.1531C5.53906 7.544 9.31733 3.79199 13.9974 3.79199V2.04199C8.36815 2.04199 3.78906 6.56028 3.78906 12.1531H5.53906ZM13.9974 3.79199C18.6775 3.79199 22.4557 7.544 22.4557 12.1531H24.2057C24.2057 6.56028 19.6266 2.04199 13.9974 2.04199V3.79199Z" fill="#2647E6"/>
<circle r="3.5" transform="matrix(-1 0 0 1 13.9961 11.667)" stroke="#2647E6" stroke-width="1.75"/>
</svg>
