<svg width="28" height="28" viewBox="0 0 28 28" fill="none" xmlns="http://www.w3.org/2000/svg">
<path d="M12.7979 3.1602C13.342 2.25605 14.6528 2.25605 15.1969 3.1602L17.9158 7.678C18.1113 8.00282 18.4301 8.23448 18.7994 8.32001L23.9363 9.50972C24.9643 9.74782 25.3694 10.9945 24.6776 11.7914L21.2211 15.7732C20.9726 16.0595 20.8508 16.4343 20.8836 16.812L21.3395 22.0651C21.4307 23.1164 20.3703 23.8869 19.3986 23.4752L14.5435 21.4184C14.1945 21.2705 13.8003 21.2705 13.4513 21.4184L8.59617 23.4752C7.62452 23.8869 6.56405 23.1164 6.65529 22.0651L7.11119 16.812C7.14397 16.4343 7.02218 16.0595 6.77366 15.7732L3.31715 11.7914C2.6254 10.9945 3.03046 9.74782 4.0585 9.50972L9.19536 8.32001C9.56468 8.23448 9.88353 8.00282 10.079 7.678L12.7979 3.1602Z" stroke="#2647E6" stroke-width="1.75"/>
</svg>
