<svg width="32" height="32" viewBox="0 0 32 32" fill="none" xmlns="http://www.w3.org/2000/svg">
<path d="M11.825 17.175V18.65H17.375V20.075H11.825V23H9.3V20.075H6.75V18.65H9.3V5.5H16.175C18.4583 5.5 20.2417 6.00833 21.525 7.025C22.8083 8.025 23.45 9.45833 23.45 11.325C23.45 13.2083 22.8083 14.6583 21.525 15.675C20.2417 16.675 18.4583 17.175 16.175 17.175H11.825ZM20.925 11.35C20.925 10.1667 20.5167 9.25833 19.7 8.625C18.8833 7.99167 17.7083 7.675 16.175 7.675H11.825V15.1H16.175C17.6917 15.1 18.8583 14.775 19.675 14.125C20.5083 13.4583 20.925 12.5333 20.925 11.35Z" fill="#2647E6"/>
</svg>
