<svg width="32" height="32" viewBox="0 0 32 32" fill="none" xmlns="http://www.w3.org/2000/svg">
<path d="M16 32C24.8366 32 32 24.8366 32 16C32 7.16344 24.8366 0 16 0C7.16344 0 0 7.16344 0 16C0 24.8366 7.16344 32 16 32Z" fill="#25D366"/>
<path fill-rule="evenodd" clip-rule="evenodd" d="M16.5276 24.9012H16.5237C14.9314 24.9007 13.3668 24.5012 11.9772 23.7432L6.93359 25.0662L8.28334 20.1361C7.45075 18.6932 7.01265 17.0565 7.01336 15.3797C7.01545 10.134 11.2835 5.86621 16.5276 5.86621C19.0727 5.86731 21.4615 6.85812 23.2577 8.65648C25.054 10.4548 26.0427 12.8451 26.0417 15.3872C26.0396 20.6317 21.7733 24.8991 16.5276 24.9012ZM12.2103 22.0208L12.499 22.1922C13.7131 22.9126 15.1049 23.2939 16.5239 23.2944H16.5271C20.8856 23.2944 24.433 19.7469 24.4347 15.3866C24.4355 13.2737 23.6138 11.2869 22.1208 9.79218C20.6278 8.29745 18.6423 7.47388 16.5302 7.47314C12.1683 7.47314 8.62087 11.0203 8.61914 15.3802C8.61853 16.8744 9.0366 18.3296 9.82818 19.5886L10.0162 19.8878L9.21734 22.8059L12.2103 22.0208ZM20.9952 17.4356C21.161 17.5157 21.273 17.5698 21.3208 17.6496C21.3802 17.7487 21.3802 18.2247 21.1822 18.7801C20.984 19.3354 20.0343 19.8422 19.5775 19.9104C19.168 19.9717 18.6497 19.9972 18.0802 19.8162C17.7349 19.7067 17.2922 19.5604 16.725 19.3155C14.4964 18.3532 12.9903 16.1931 12.7056 15.7849C12.6857 15.7563 12.6717 15.7363 12.664 15.7259L12.662 15.7233C12.5362 15.5555 11.6933 14.4308 11.6933 13.2667C11.6933 12.1717 12.2312 11.5977 12.4788 11.3336C12.4957 11.3155 12.5113 11.2988 12.5253 11.2835C12.7432 11.0455 13.0008 10.986 13.1592 10.986C13.3177 10.986 13.4763 10.9875 13.6148 10.9945C13.6319 10.9953 13.6497 10.9952 13.6681 10.9951C13.8066 10.9943 13.9793 10.9933 14.1497 11.4025C14.2153 11.56 14.3112 11.7935 14.4123 12.0398C14.6169 12.5378 14.8429 13.0881 14.8827 13.1677C14.9421 13.2867 14.9817 13.4255 14.9025 13.5842C14.8906 13.608 14.8796 13.6304 14.8691 13.6519C14.8096 13.7734 14.7658 13.8628 14.6648 13.9807C14.625 14.0271 14.584 14.0771 14.5429 14.1271C14.4612 14.2267 14.3794 14.3263 14.3082 14.3972C14.1892 14.5158 14.0653 14.6444 14.2039 14.8824C14.3426 15.1204 14.8197 15.8988 15.5264 16.5292C16.2861 17.2068 16.9464 17.4932 17.281 17.6384C17.3464 17.6667 17.3993 17.6897 17.4382 17.7091C17.6758 17.8282 17.8145 17.8082 17.9532 17.6496C18.0919 17.491 18.5474 16.9554 18.7059 16.7175C18.8643 16.4796 19.0229 16.5192 19.2407 16.5985C19.4587 16.6779 20.6275 17.253 20.8652 17.3719C20.9116 17.3952 20.955 17.4161 20.9952 17.4356Z" fill="#FDFDFD"/>
</svg>
