<svg width="28" height="28" viewBox="0 0 28 28" fill="none" xmlns="http://www.w3.org/2000/svg">
<path fill-rule="evenodd" clip-rule="evenodd" d="M14.242 27.0179H14.2365C11.9973 27.0171 9.79705 26.4553 7.84288 25.3894L0.750366 27.2499L2.64844 20.317C1.47762 18.2879 0.861534 15.9863 0.862538 13.6283C0.865473 6.25153 6.86738 0.249939 14.2419 0.249939C17.821 0.251484 21.1802 1.64481 23.7062 4.17376C26.2322 6.70258 27.6225 10.064 27.6211 13.6388C27.6182 21.0139 21.6186 27.0149 14.242 27.0179ZM8.17069 22.9673L8.57675 23.2083C10.2841 24.2215 12.2412 24.7576 14.2367 24.7584H14.2412C20.3703 24.7584 25.3589 19.7697 25.3613 13.6381C25.3625 10.6667 24.2069 7.87282 22.1074 5.77085C20.0079 3.66889 17.2158 2.51074 14.2456 2.50971C8.11168 2.50971 3.1231 7.49784 3.12067 13.6291C3.1198 15.7303 3.70772 17.7766 4.82088 19.5471L5.08528 19.9678L3.96189 24.0714L8.17069 22.9673ZM20.5244 16.5194C20.7576 16.632 20.9151 16.7081 20.9823 16.8204C21.0658 16.9597 21.0658 17.6291 20.7874 18.4101C20.5087 19.191 19.1732 19.9037 18.5308 19.9996C17.9549 20.0857 17.2261 20.1216 16.4253 19.8671C15.9397 19.7131 15.3171 19.5074 14.5195 19.1629C11.3855 17.8097 9.26754 14.7722 8.86725 14.1981C8.8392 14.1579 8.81959 14.1297 8.80865 14.1151L8.80595 14.1115C8.62904 13.8755 7.44361 12.2938 7.44361 10.6569C7.44361 9.11703 8.20003 8.3099 8.5482 7.93838C8.57206 7.91292 8.594 7.88951 8.61364 7.86805C8.92006 7.53337 9.28226 7.4497 9.50511 7.4497C9.72795 7.4497 9.95105 7.45176 10.1458 7.46154C10.1699 7.46274 10.1949 7.4626 10.2207 7.46245C10.4155 7.4613 10.6584 7.45988 10.898 8.0354C10.9902 8.25688 11.125 8.58524 11.2673 8.93156C11.555 9.63188 11.8728 10.4056 11.9287 10.5176C12.0123 10.685 12.068 10.8801 11.9566 11.1033C11.9398 11.1368 11.9244 11.1684 11.9096 11.1985C11.8259 11.3694 11.7643 11.4951 11.6223 11.661C11.5664 11.7262 11.5087 11.7965 11.451 11.8668C11.336 12.0069 11.221 12.1469 11.1208 12.2467C10.9535 12.4134 10.7792 12.5942 10.9742 12.9289C11.1693 13.2636 11.8402 14.3583 12.834 15.2448C13.9023 16.1976 14.8308 16.6004 15.3014 16.8045C15.3933 16.8444 15.4678 16.8767 15.5224 16.904C15.8566 17.0714 16.0516 17.0434 16.2466 16.8204C16.4416 16.5972 17.0823 15.8442 17.3051 15.5095C17.5279 15.175 17.7509 15.2307 18.0573 15.3422C18.3638 15.4539 20.0073 16.2625 20.3416 16.4299C20.4069 16.4625 20.4679 16.492 20.5244 16.5194Z" fill="#FDFDFD"/>
</svg>
