<svg width="88" height="41" viewBox="0 0 88 41" fill="none" xmlns="http://www.w3.org/2000/svg">
<rect x="47.8203" y="0.5" width="39.6791" height="39.6791" rx="19.8395" fill="white"/>
<path d="M67.6597 28.461C72.1446 28.461 75.7803 24.8253 75.7803 20.3404L78.3563 18.3486C78.4758 18.9943 78.5382 19.6601 78.5382 20.3404C78.5382 26.3484 73.6678 31.2189 67.6597 31.2189C61.6517 31.2189 56.7812 26.3484 56.7812 20.3404C56.7812 14.3324 61.6517 9.46191 67.6597 9.46191C70.206 9.46191 72.5479 10.3367 74.4013 11.8021L72.3001 13.6754C70.9848 12.7579 69.3851 12.2198 67.6597 12.2198C63.1749 12.2198 59.5392 15.8555 59.5392 20.3404C59.5392 24.8253 63.1749 28.461 67.6597 28.461Z" fill="url(#paint0_angular_409_2035)"/>
<path d="M75.9341 14.0586L77.3131 16.2036L67.5837 23.3283L63.5234 20.8002V17.7358L67.5837 20.1873L75.9341 14.0586Z" fill="url(#paint1_linear_409_2035)"/>
<rect x="47.8203" y="0.5" width="39.6791" height="39.6791" rx="19.8395" stroke="#C5C9D5"/>
<rect x="24.1602" y="0.5" width="39.6791" height="39.6791" rx="19.8395" fill="white"/>
<path d="M54.88 20.3394C54.88 26.3475 50.0096 31.2179 44.0015 31.2179C37.9935 31.2179 33.123 26.3475 33.123 20.3394C33.123 14.3314 37.9935 9.46094 44.0015 9.46094C50.0096 9.46094 54.88 14.3314 54.88 20.3394Z" fill="#05BFF2"/>
<path d="M41.4911 13.2266L42.4953 15.6533C41.3795 16.0159 39.1481 17.4441 39.1481 20.2558C39.1481 23.0674 41.3795 24.6629 42.4953 25.1092L41.4911 27.6197C39.8175 26.8665 36.4703 24.3394 36.4703 20.2558C36.4703 16.1721 39.8175 13.8681 41.4911 13.2266Z" fill="white"/>
<path d="M46.6793 27.6197L45.6752 25.1929C46.7909 24.8303 49.0224 23.4021 49.0224 20.5905C49.0224 17.7788 46.7909 16.1833 45.6752 15.737L46.6793 13.2266C48.3529 13.9797 51.7002 16.5069 51.7002 20.5905C51.7002 24.6741 48.3529 26.9781 46.6793 27.6197Z" fill="white"/>
<rect x="24.1602" y="0.5" width="39.6791" height="39.6791" rx="19.8395" stroke="#C5C9D5"/>
<rect x="0.5" y="0.5" width="39.6791" height="39.6791" rx="19.8395" fill="white"/>
<path d="M20.0387 8.85701C21.3841 8.85701 21.8068 9.85997 22.1615 10.8614C22.3105 11.2866 25.8067 21.2377 25.9118 21.5364C25.9398 21.6197 25.9209 21.7565 25.7976 21.806C25.6736 21.8547 23.8571 22.5889 23.7565 22.6282C23.6559 22.6683 23.5432 22.6101 23.5069 22.5055C23.4691 22.4026 22.7151 20.2331 22.6304 19.9911H17.4485C17.3668 20.2331 16.6038 22.4073 16.5697 22.5055C16.5349 22.6054 16.4268 22.673 16.3194 22.6282C16.212 22.5841 14.3887 21.85 14.2798 21.806C14.1754 21.7635 14.1278 21.6401 14.1641 21.5364C14.2926 21.1638 17.7359 11.3723 17.9113 10.8614C18.2532 9.87491 18.6903 8.85701 20.0387 8.85701ZM13.8873 26.6628C13.7784 26.6628 13.6914 26.7572 13.6914 26.8719V29.1978C13.6914 29.3125 13.7784 29.4053 13.8873 29.4053H26.1848C26.296 29.4053 26.383 29.3125 26.383 29.1978V26.8719C26.383 26.7572 26.296 26.6628 26.1848 26.6628H13.8873ZM20.0266 12.1064L18.2751 17.5732H21.8068L20.0493 12.1064H20.0266Z" fill="#EF3124"/>
<rect x="0.5" y="0.5" width="39.6791" height="39.6791" rx="19.8395" stroke="#C5C9D5"/>
<defs>
<radialGradient id="paint0_angular_409_2035" cx="0" cy="0" r="1" gradientUnits="userSpaceOnUse" gradientTransform="translate(67.6597 20.3404) rotate(90) scale(10.8785)">
<stop offset="0.203225" stop-color="#DFFA16"/>
<stop offset="0.307936" stop-color="#8CFB6B"/>
<stop offset="0.369792" stop-color="#10E7EF"/>
<stop offset="0.494792" stop-color="#0DA9DA"/>
<stop offset="0.583333" stop-color="#0B86CE"/>
<stop offset="0.729406" stop-color="#219E39"/>
<stop offset="1" stop-color="#7EF629"/>
</radialGradient>
<linearGradient id="paint1_linear_409_2035" x1="63.217" y1="19.6511" x2="77.1599" y2="15.5142" gradientUnits="userSpaceOnUse">
<stop stop-color="#219F36"/>
<stop offset="1" stop-color="#24A139"/>
</linearGradient>
</defs>
</svg>
